<?xml version="1.0"?>
<svg xmlns="http://www.w3.org/2000/svg" xmlns:xlink="http://www.w3.org/1999/xlink"
    xmlns:svgjs="http://svgjs.com/svgjs" version="1.1" width="512" height="512" x="0" y="0"
    viewBox="0 0 512.136 512.136" style="enable-background:new 0 0 512 512" xml:space="preserve"
    class=""><g><g xmlns="http://www.w3.org/2000/svg"><path d="m104.352 403.371-23.929-196.831c-2.252-19.76 4.44-38.28 16.68-51.787l-11.105-13.685c-39.41 0-70.037 34.315-65.574 73.472l21.521 188.851c5.757 50.521 48.51 88.677 99.357 88.677h62.411l-.004-.019c-50.847 0-93.6-38.158-99.357-88.678z" fill="#cee1f2" data-original="#cee1f2" style=""/><path
    d="m370.835 512.068h-229.533c-61.058 0-112.315-45.748-119.229-106.413l-21.521-188.85c-2.771-24.319 4.987-48.74 21.285-67.001 16.298-18.262 39.684-28.735 64.161-28.735 11.046 0 20 8.954 20 20s-8.954 20-20 20c-13.285 0-25.472 5.458-34.318 15.37-8.846 9.911-12.889 22.638-11.385 35.837l21.521 188.851c4.609 40.443 38.78 70.942 79.485 70.942h229.534c40.705 0 74.877-30.498 79.485-70.941l21.521-188.852c1.504-13.199-2.539-25.926-11.385-35.837-8.846-9.912-21.033-15.37-34.318-15.37-11.046 0-20-8.954-20-20s8.954-20 20-20c24.477 0 47.863 10.474 64.161 28.735s24.057 42.682 21.284 67.001l-21.521 188.851c-6.911 60.665-58.168 106.412-119.227 106.412zm-186.844-325v-74c0-40.252 32.748-73 73-73s73 32.748 73 73v8h-86c-11.046 0-20 8.954-20 20s8.954 20 20 20h106c11.046 0 20-8.954 20-20v-28c0-62.309-50.691-113-113-113s-113 50.691-113 113v74c0 11.046 8.954 20 20 20s20-8.954 20-20z"
    fill="#a044ff" data-original="#1428bf" style="" class="" /><path
    d="m194.991 291.068c0 13.807-11.193 25-25 25s-25-11.193-25-25 11.193-25 25-25 25 11.193 25 25zm61-25c-13.807 0-25 11.193-25 25s11.193 25 25 25 25-11.193 25-25-11.193-25-25-25zm86 0c-13.807 0-25 11.193-25 25s11.193 25 25 25 25-11.193 25-25-11.193-25-25-25zm-172 86c-13.807 0-25 11.193-25 25s11.193 25 25 25 25-11.193 25-25-11.193-25-25-25zm86 0c-13.807 0-25 11.193-25 25s11.193 25 25 25 25-11.193 25-25-11.193-25-25-25zm86 0c-13.807 0-25 11.193-25 25s11.193 25 25 25 25-11.193 25-25-11.193-25-25-25z"
    fill="#df5cf0" data-original="#df5cf0" style="" /></g></g></svg>
